<?xml version="1.0" encoding="UTF-8"?>
<svg xmlns="http://www.w3.org/2000/svg" xmlns:xlink="http://www.w3.org/1999/xlink" width="288px" height="252px" viewBox="0 0 288 252" version="1.1" id="Fig:dens">
  <metadata xmlns:gridsvg="http://www.stat.auckland.ac.nz/~paul/R/gridSVG/">
    <gridsvg:generator name="gridSVG" version="1.7-2" time="2020-11-25 14:47:05"/>
    <gridsvg:argument name="name" value="./Resultats/qualitat-crues/dens.svg"/>
    <gridsvg:argument name="exportCoords" value="none"/>
    <gridsvg:argument name="exportMappings" value="none"/>
    <gridsvg:argument name="exportJS" value="none"/>
    <gridsvg:argument name="res" value="72"/>
    <gridsvg:argument name="prefix" value="Fig:dens"/>
    <gridsvg:argument name="addClasses" value="FALSE"/>
    <gridsvg:argument name="indent" value="TRUE"/>
    <gridsvg:argument name="htmlWrapper" value="FALSE"/>
    <gridsvg:argument name="usePaths" value="none"/>
    <gridsvg:argument name="uniqueNames" value="TRUE"/>
    <gridsvg:separator name="id.sep" value="."/>
    <gridsvg:separator name="gPath.sep" value="::"/>
    <gridsvg:separator name="vpPath.sep" value="::"/>
  </metadata>
  <g transform="translate(0, 252) scale(1, -1)">
    <g id="Fig:densgridSVG" fill="none" stroke="rgb(0,0,0)" stroke-dasharray="none" stroke-width="0.75" font-size="12" font-family="Helvetica, Arial, FreeSans, Liberation Sans, Nimbus Sans L, sans-serif" opacity="1" stroke-linecap="round" stroke-linejoin="round" stroke-miterlimit="10" stroke-opacity="1" fill-opacity="0" font-weight="normal" font-style="normal">
      <g id="Fig:densplot_01.background.1">
        <rect id="Fig:densplot_01.background.1.1" x="0" y="0" width="288" height="252" transform="" fill="none" stroke="none" stroke-opacity="0" fill-opacity="0"/>
      </g>
      <g id="Fig:densplot_01.toplevel.vp.1" font-size="12">
        <g id="Fig:densplot_01.ylab.vp.1">
          <g id="Fig:densplot_01.ylab.1">
            <g id="Fig:densplot_01.ylab.1.1" transform="translate(10.31, 138.09)" stroke-width="0.1">
              <g id="Fig:densplot_01.ylab.1.1.scale" transform="scale(1, -1)">
                <text x="0" y="0" id="Fig:densplot_01.ylab.1.1.text" transform="rotate(-90)" text-anchor="middle" opacity="1" stroke="rgb(0,0,0)" fill="rgb(0,0,0)" stroke-opacity="1" fill-opacity="1" font-size="12" font-weight="normal" font-style="normal">
                  <tspan id="Fig:densplot_01.ylab.1.1.tspan.1" dy="4.31" x="0">Density</tspan>
                </text>
              </g>
            </g>
          </g>
        </g>
        <g id="Fig:densplot_01.figure.vp.1"/>
        <defs>
          <clipPath id="Fig:densplot_01.panel.1.1.vp.1.clipPath">
            <rect x="44.8" y="42.19" width="231.2" height="191.81" fill="none" stroke="none"/>
          </clipPath>
        </defs>
        <g id="Fig:densplot_01.panel.1.1.vp.1" clip-path="url(#Fig:densplot_01.panel.1.1.vp.1.clipPath)"/>
        <g id="Fig:densplot_01.strip.1.1.off.vp.1"/>
        <g id="Fig:densplot_01.strip.left.1.1.off.vp.1">
          <g id="Fig:densplot_01.ticks.left.panel.1.1.1">
            <polyline id="Fig:densplot_01.ticks.left.panel.1.1.1.1" points="44.8,53.97 39.13,53.97" stroke="rgb(0,0,0)" opacity="1" stroke-dasharray="none" stroke-width="0.75" stroke-opacity="1" fill="none"/>
            <polyline id="Fig:densplot_01.ticks.left.panel.1.1.1.2" points="44.8,112.76 39.13,112.76" stroke="rgb(0,0,0)" opacity="1" stroke-dasharray="none" stroke-width="0.75" stroke-opacity="1" fill="none"/>
            <polyline id="Fig:densplot_01.ticks.left.panel.1.1.1.3" points="44.8,171.55 39.13,171.55" stroke="rgb(0,0,0)" opacity="1" stroke-dasharray="none" stroke-width="0.75" stroke-opacity="1" fill="none"/>
            <polyline id="Fig:densplot_01.ticks.left.panel.1.1.1.4" points="44.8,230.34 39.13,230.34" stroke="rgb(0,0,0)" opacity="1" stroke-dasharray="none" stroke-width="0.75" stroke-opacity="1" fill="none"/>
          </g>
          <g id="Fig:densplot_01.ticklabels.left.panel.1.1.1">
            <g id="Fig:densplot_01.ticklabels.left.panel.1.1.1.1" transform="translate(33.47, 53.97)" stroke-width="0.1">
              <g id="Fig:densplot_01.ticklabels.left.panel.1.1.1.1.scale" transform="scale(1, -1)">
                <text x="0" y="0" id="Fig:densplot_01.ticklabels.left.panel.1.1.1.1.text" transform="rotate(-90)" text-anchor="middle" stroke="rgb(0,0,0)" opacity="1" fill="rgb(0,0,0)" stroke-opacity="1" fill-opacity="1" font-size="9.6" font-weight="normal" font-style="normal">
                  <tspan id="Fig:densplot_01.ticklabels.left.panel.1.1.1.1.tspan.1" dy="0" x="0">0.000</tspan>
                </text>
              </g>
            </g>
            <g id="Fig:densplot_01.ticklabels.left.panel.1.1.1.2" transform="translate(33.47, 112.76)" stroke-width="0.1">
              <g id="Fig:densplot_01.ticklabels.left.panel.1.1.1.2.scale" transform="scale(1, -1)">
                <text x="0" y="0" id="Fig:densplot_01.ticklabels.left.panel.1.1.1.2.text" transform="rotate(-90)" text-anchor="middle" stroke="rgb(0,0,0)" opacity="1" fill="rgb(0,0,0)" stroke-opacity="1" fill-opacity="1" font-size="9.6" font-weight="normal" font-style="normal">
                  <tspan id="Fig:densplot_01.ticklabels.left.panel.1.1.1.2.tspan.1" dy="0" x="0">0.005</tspan>
                </text>
              </g>
            </g>
            <g id="Fig:densplot_01.ticklabels.left.panel.1.1.1.3" transform="translate(33.47, 171.55)" stroke-width="0.1">
              <g id="Fig:densplot_01.ticklabels.left.panel.1.1.1.3.scale" transform="scale(1, -1)">
                <text x="0" y="0" id="Fig:densplot_01.ticklabels.left.panel.1.1.1.3.text" transform="rotate(-90)" text-anchor="middle" stroke="rgb(0,0,0)" opacity="1" fill="rgb(0,0,0)" stroke-opacity="1" fill-opacity="1" font-size="9.6" font-weight="normal" font-style="normal">
                  <tspan id="Fig:densplot_01.ticklabels.left.panel.1.1.1.3.tspan.1" dy="0" x="0">0.010</tspan>
                </text>
              </g>
            </g>
          </g>
        </g>
        <g id="Fig:densplot_01.panel.1.1.off.vp.1">
          <g id="Fig:densplot_01.ticks.bottom.panel.1.1.1">
            <polyline id="Fig:densplot_01.ticks.bottom.panel.1.1.1.1" points="59.87,42.19 59.87,36.52" stroke="rgb(0,0,0)" opacity="1" stroke-dasharray="none" stroke-width="0.75" stroke-opacity="1" fill="none"/>
            <polyline id="Fig:densplot_01.ticks.bottom.panel.1.1.1.2" points="111.85,42.19 111.85,36.52" stroke="rgb(0,0,0)" opacity="1" stroke-dasharray="none" stroke-width="0.75" stroke-opacity="1" fill="none"/>
            <polyline id="Fig:densplot_01.ticks.bottom.panel.1.1.1.3" points="163.83,42.19 163.83,36.52" stroke="rgb(0,0,0)" opacity="1" stroke-dasharray="none" stroke-width="0.75" stroke-opacity="1" fill="none"/>
            <polyline id="Fig:densplot_01.ticks.bottom.panel.1.1.1.4" points="215.82,42.19 215.82,36.52" stroke="rgb(0,0,0)" opacity="1" stroke-dasharray="none" stroke-width="0.75" stroke-opacity="1" fill="none"/>
            <polyline id="Fig:densplot_01.ticks.bottom.panel.1.1.1.5" points="267.8,42.19 267.8,36.52" stroke="rgb(0,0,0)" opacity="1" stroke-dasharray="none" stroke-width="0.75" stroke-opacity="1" fill="none"/>
          </g>
          <g id="Fig:densplot_01.ticklabels.bottom.panel.1.1.1">
            <g id="Fig:densplot_01.ticklabels.bottom.panel.1.1.1.1" transform="translate(59.87, 30.85)" stroke-width="0.1">
              <g id="Fig:densplot_01.ticklabels.bottom.panel.1.1.1.1.scale" transform="scale(1, -1)">
                <text x="0" y="0" id="Fig:densplot_01.ticklabels.bottom.panel.1.1.1.1.text" text-anchor="middle" stroke="rgb(0,0,0)" opacity="1" fill="rgb(0,0,0)" stroke-opacity="1" fill-opacity="1" font-size="9.6" font-weight="normal" font-style="normal">
                  <tspan id="Fig:densplot_01.ticklabels.bottom.panel.1.1.1.1.tspan.1" dy="7.18" x="0">0</tspan>
                </text>
              </g>
            </g>
            <g id="Fig:densplot_01.ticklabels.bottom.panel.1.1.1.2" transform="translate(111.85, 30.85)" stroke-width="0.1">
              <g id="Fig:densplot_01.ticklabels.bottom.panel.1.1.1.2.scale" transform="scale(1, -1)">
                <text x="0" y="0" id="Fig:densplot_01.ticklabels.bottom.panel.1.1.1.2.text" text-anchor="middle" stroke="rgb(0,0,0)" opacity="1" fill="rgb(0,0,0)" stroke-opacity="1" fill-opacity="1" font-size="9.6" font-weight="normal" font-style="normal">
                  <tspan id="Fig:densplot_01.ticklabels.bottom.panel.1.1.1.2.tspan.1" dy="7.18" x="0">500</tspan>
                </text>
              </g>
            </g>
            <g id="Fig:densplot_01.ticklabels.bottom.panel.1.1.1.3" transform="translate(163.83, 30.85)" stroke-width="0.1">
              <g id="Fig:densplot_01.ticklabels.bottom.panel.1.1.1.3.scale" transform="scale(1, -1)">
                <text x="0" y="0" id="Fig:densplot_01.ticklabels.bottom.panel.1.1.1.3.text" text-anchor="middle" stroke="rgb(0,0,0)" opacity="1" fill="rgb(0,0,0)" stroke-opacity="1" fill-opacity="1" font-size="9.6" font-weight="normal" font-style="normal">
                  <tspan id="Fig:densplot_01.ticklabels.bottom.panel.1.1.1.3.tspan.1" dy="7.18" x="0">1000</tspan>
                </text>
              </g>
            </g>
            <g id="Fig:densplot_01.ticklabels.bottom.panel.1.1.1.4" transform="translate(215.82, 30.85)" stroke-width="0.1">
              <g id="Fig:densplot_01.ticklabels.bottom.panel.1.1.1.4.scale" transform="scale(1, -1)">
                <text x="0" y="0" id="Fig:densplot_01.ticklabels.bottom.panel.1.1.1.4.text" text-anchor="middle" stroke="rgb(0,0,0)" opacity="1" fill="rgb(0,0,0)" stroke-opacity="1" fill-opacity="1" font-size="9.6" font-weight="normal" font-style="normal">
                  <tspan id="Fig:densplot_01.ticklabels.bottom.panel.1.1.1.4.tspan.1" dy="7.18" x="0">1500</tspan>
                </text>
              </g>
            </g>
            <g id="Fig:densplot_01.ticklabels.bottom.panel.1.1.1.5" transform="translate(267.8, 30.85)" stroke-width="0.1">
              <g id="Fig:densplot_01.ticklabels.bottom.panel.1.1.1.5.scale" transform="scale(1, -1)">
                <text x="0" y="0" id="Fig:densplot_01.ticklabels.bottom.panel.1.1.1.5.text" text-anchor="middle" stroke="rgb(0,0,0)" opacity="1" fill="rgb(0,0,0)" stroke-opacity="1" fill-opacity="1" font-size="9.6" font-weight="normal" font-style="normal">
                  <tspan id="Fig:densplot_01.ticklabels.bottom.panel.1.1.1.5.tspan.1" dy="7.18" x="0">2000</tspan>
                </text>
              </g>
            </g>
          </g>
        </g>
        <defs>
          <clipPath id="Fig:densplot_01.panel.1.1.vp.2.clipPath">
            <rect x="44.8" y="42.19" width="231.2" height="191.81" fill="none" stroke="none"/>
          </clipPath>
        </defs>
        <g id="Fig:densplot_01.panel.1.1.vp.2" clip-path="url(#Fig:densplot_01.panel.1.1.vp.2.clipPath)">
          <g id="Fig:densplot_01.xyplot.lines.group.1.panel.1.1.1">
            <polyline id="Fig:densplot_01.xyplot.lines.group.1.panel.1.1.1.1" points="60.98,53.97 61.37,53.97 61.76,54 62.15,54.13 62.54,54.68 62.93,56.49 63.32,61.37 63.71,71.92 64.1,90 64.49,114.29 64.88,139.57 65.27,159.45 65.66,170.37 66.05,172.94 66.44,170.06 66.83,164.55 67.22,158.18 67.61,151.78 68,145.64 68.39,139.76 68.78,134.13 69.17,128.79 69.56,123.82 69.95,119.27 70.34,115.14 70.73,111.43 71.12,108.1 71.51,105.14 71.91,102.54 72.3,100.2 72.69,97.96 73.08,95.77 73.47,93.7 73.86,91.84 74.25,90.18 74.64,88.65 75.03,87.17 75.42,85.72 75.81,84.37 76.2,83.12 76.59,81.95 76.98,80.83 77.37,79.81 77.76,78.92 78.15,78.15 78.54,77.42 78.93,76.65 79.32,75.81 79.71,74.96 80.1,74.14 80.49,73.36 80.88,72.57 81.27,71.82 81.66,71.14 82.05,70.59 82.44,70.08 82.83,69.55 83.22,68.98 83.61,68.43 84,67.95 84.39,67.56 84.78,67.17 85.17,66.75 85.56,66.29 85.95,65.84 86.34,65.4 86.73,64.98 87.12,64.58 87.52,64.2 87.91,63.83 88.3,63.49 88.69,63.17 89.08,62.9 89.47,62.68 89.86,62.51 90.25,62.33 90.64,62.12 91.03,61.88 91.42,61.63 91.81,61.4 92.2,61.17 92.59,60.95 92.98,60.72 93.37,60.51 93.76,60.31 94.15,60.13 94.54,59.99 94.93,59.87 95.32,59.76 95.71,59.64 96.1,59.5 96.49,59.38 96.88,59.29 97.27,59.21 97.66,59.1 98.05,58.97 98.44,58.83 98.83,58.68 99.22,58.51 99.61,58.36 100,58.24 100.39,58.15 100.78,58.09 101.17,58.01 101.56,57.91 101.95,57.81 102.34,57.71 102.74,57.63 103.13,57.58 103.52,57.53 103.91,57.46 104.3,57.39 104.69,57.31 105.08,57.22 105.47,57.14 105.86,57.06 106.25,57.01 106.64,56.97 107.03,56.94 107.42,56.88 107.81,56.8 108.2,56.72 108.59,56.66 108.98,56.61 109.37,56.58 109.76,56.54 110.15,56.49 110.54,56.44 110.93,56.4 111.32,56.36 111.71,56.34 112.1,56.32 112.49,56.31 112.88,56.29 113.27,56.24 113.66,56.17 114.05,56.1 114.44,56.02 114.83,55.96 115.22,55.92 115.61,55.9 116,55.89 116.39,55.89 116.78,55.86 117.17,55.81 117.56,55.77 117.96,55.75 118.35,55.75 118.74,55.76 119.13,55.76 119.52,55.75 119.91,55.74 120.3,55.71 120.69,55.69 121.08,55.68 121.47,55.66 121.86,55.63 122.25,55.59 122.64,55.53 123.03,55.48 123.42,55.44 123.81,55.41 124.2,55.4 124.59,55.39 124.98,55.39 125.37,55.38 125.76,55.36 126.15,55.33 126.54,55.29 126.93,55.27 127.32,55.25 127.71,55.24 128.1,55.22 128.49,55.2 128.88,55.17 129.27,55.14 129.66,55.12 130.05,55.1 130.44,55.08 130.83,55.07 131.22,55.06 131.61,55.05 132,55.04 132.39,55.03 132.78,55.03 133.17,55.03 133.57,55.02 133.96,55.01 134.35,55 134.74,54.99 135.13,54.99 135.52,54.99 135.91,54.99 136.3,54.99 136.69,54.99 137.08,54.99 137.47,54.98 137.86,54.96 138.25,54.95 138.64,54.93 139.03,54.91 139.42,54.89 139.81,54.87 140.2,54.86 140.59,54.86 140.98,54.86 141.37,54.86 141.76,54.84 142.15,54.81 142.54,54.78 142.93,54.76 143.32,54.76 143.71,54.76 144.1,54.77 144.49,54.76 144.88,54.74 145.27,54.73 145.66,54.71 146.05,54.69 146.44,54.69 146.83,54.69 147.22,54.69 147.61,54.67 148,54.65 148.39,54.63 148.79,54.62 149.18,54.62 149.57,54.61 149.96,54.61 150.35,54.6 150.74,54.61 151.13,54.62 151.52,54.63 151.91,54.63 152.3,54.62 152.69,54.6 153.08,54.57 153.47,54.55 153.86,54.54 154.25,54.53 154.64,54.54 155.03,54.54 155.42,54.53 155.81,54.52 156.2,54.5 156.59,54.5 156.98,54.49 157.37,54.49 157.76,54.47 158.15,54.46 158.54,54.45 158.93,54.44 159.32,54.44 159.71,54.44 160.1,54.44 160.49,54.43 160.88,54.43 161.27,54.44 161.66,54.45 162.05,54.44 162.44,54.44 162.83,54.43 163.22,54.43 163.61,54.44 164,54.44 164.4,54.45 164.79,54.45 165.18,54.44 165.57,54.43 165.96,54.42 166.35,54.41 166.74,54.4 167.13,54.39 167.52,54.39 167.91,54.4 168.3,54.4 168.69,54.39 169.08,54.38 169.47,54.36 169.86,54.36 170.25,54.35 170.64,54.36 171.03,54.36 171.42,54.36 171.81,54.36 172.2,54.35 172.59,54.34 172.98,54.34 173.37,54.34 173.76,54.33 174.15,54.33 174.54,54.32 174.93,54.31 175.32,54.31 175.71,54.32 176.1,54.32 176.49,54.32 176.88,54.31 177.27,54.3 177.66,54.3 178.05,54.3 178.44,54.3 178.83,54.3 179.22,54.3 179.62,54.31 180.01,54.31 180.4,54.32 180.79,54.33 181.18,54.33 181.57,54.32 181.96,54.31 182.35,54.29 182.74,54.28 183.13,54.26 183.52,54.25 183.91,54.24 184.3,54.24 184.69,54.24 185.08,54.25 185.47,54.25 185.86,54.26 186.25,54.26 186.64,54.27 187.03,54.27 187.42,54.26 187.81,54.25 188.2,54.24 188.59,54.23 188.98,54.22 189.37,54.22 189.76,54.22 190.15,54.21 190.54,54.21 190.93,54.21 191.32,54.21 191.71,54.22 192.1,54.22 192.49,54.22 192.88,54.22 193.27,54.22 193.66,54.21 194.05,54.21 194.44,54.2 194.84,54.2 195.23,54.21 195.62,54.21 196.01,54.21 196.4,54.21 196.79,54.2 197.18,54.19 197.57,54.19 197.96,54.19 198.35,54.19 198.74,54.18 199.13,54.19 199.52,54.2 199.91,54.21 200.3,54.22 200.69,54.23 201.08,54.23 201.47,54.22 201.86,54.2 202.25,54.19 202.64,54.17 203.03,54.16 203.42,54.15 203.81,54.15 204.2,54.16 204.59,54.18 204.98,54.19 205.37,54.2 205.76,54.19 206.15,54.18 206.54,54.17 206.93,54.16 207.32,54.15 207.71,54.14 208.1,54.14 208.49,54.14 208.88,54.15 209.27,54.15 209.66,54.15 210.05,54.14 210.45,54.14 210.84,54.13 211.23,54.12 211.62,54.12 212.01,54.12 212.4,54.12 212.79,54.12 213.18,54.13 213.57,54.13 213.96,54.13 214.35,54.13 214.74,54.13 215.13,54.12 215.52,54.12 215.91,54.11 216.3,54.12 216.69,54.13 217.08,54.14 217.47,54.14 217.86,54.14 218.25,54.13 218.64,54.12 219.03,54.11 219.42,54.11 219.81,54.11 220.2,54.12 220.59,54.12 220.98,54.12 221.37,54.12 221.76,54.12 222.15,54.12 222.54,54.12 222.93,54.11 223.32,54.1 223.71,54.1 224.1,54.11 224.49,54.11 224.88,54.11 225.27,54.11 225.67,54.11 226.06,54.11 226.45,54.11 226.84,54.11 227.23,54.1 227.62,54.1 228.01,54.1 228.4,54.1 228.79,54.11 229.18,54.11 229.57,54.11 229.96,54.11 230.35,54.11 230.74,54.1 231.13,54.1 231.52,54.1 231.91,54.1 232.3,54.1 232.69,54.1 233.08,54.1 233.47,54.1 233.86,54.09 234.25,54.08 234.64,54.07 235.03,54.06 235.42,54.06 235.81,54.06 236.2,54.06 236.59,54.07 236.98,54.08 237.37,54.08 237.76,54.07 238.15,54.08 238.54,54.08 238.93,54.09 239.32,54.09 239.71,54.09 240.1,54.08 240.49,54.08 240.89,54.08 241.28,54.07 241.67,54.07 242.06,54.07 242.45,54.07 242.84,54.07 243.23,54.07 243.62,54.07 244.01,54.07 244.4,54.06 244.79,54.06 245.18,54.05 245.57,54.05 245.96,54.05 246.35,54.06 246.74,54.06 247.13,54.06 247.52,54.05 247.91,54.05 248.3,54.05 248.69,54.06 249.08,54.06 249.47,54.07 249.86,54.07 250.25,54.07 250.64,54.07 251.03,54.06 251.42,54.06 251.81,54.06 252.2,54.06 252.59,54.06 252.98,54.06 253.37,54.06 253.76,54.07 254.15,54.07 254.54,54.07 254.93,54.06 255.32,54.05 255.71,54.04 256.1,54.04 256.5,54.04 256.89,54.04 257.28,54.04 257.67,54.03 258.06,54.02 258.45,54.01 258.84,53.99 259.23,53.98 259.62,53.97 260.01,53.97 260.4,53.97" stroke-dasharray="none" stroke="rgb(31,120,180)" stroke-width="0.75" opacity="1" stroke-opacity="1" fill="none"/>
          </g>
          <g id="Fig:densplot_01.xyplot.lines.group.2.panel.1.1.1">
            <polyline id="Fig:densplot_01.xyplot.lines.group.2.panel.1.1.1.1" points="60.53,53.97 60.93,53.97 61.32,53.99 61.71,54.04 62.11,54.2 62.5,54.6 62.9,55.51 63.29,57.33 63.68,60.59 64.08,65.75 64.47,73.04 64.86,82.2 65.26,92.45 65.65,102.65 66.04,111.62 66.44,118.52 66.83,123.02 67.22,125.27 67.62,125.74 68.01,124.97 68.4,123.46 68.8,121.53 69.19,119.39 69.59,117.13 69.98,114.8 70.37,112.46 70.77,110.12 71.16,107.83 71.55,105.63 71.95,103.52 72.34,101.53 72.73,99.66 73.13,97.89 73.52,96.23 73.91,94.66 74.31,93.17 74.7,91.77 75.09,90.45 75.49,89.21 75.88,88.06 76.27,86.98 76.67,85.96 77.06,85.01 77.46,84.1 77.85,83.25 78.24,82.45 78.64,81.7 79.03,80.99 79.42,80.32 79.82,79.65 80.21,78.99 80.6,78.32 81,77.65 81.39,76.99 81.78,76.34 82.18,75.72 82.57,75.12 82.96,74.53 83.36,73.95 83.75,73.39 84.15,72.85 84.54,72.34 84.93,71.85 85.33,71.38 85.72,70.93 86.11,70.48 86.51,70.04 86.9,69.61 87.29,69.21 87.69,68.84 88.08,68.48 88.47,68.13 88.87,67.8 89.26,67.47 89.65,67.16 90.05,66.86 90.44,66.57 90.84,66.29 91.23,66.01 91.62,65.73 92.02,65.45 92.41,65.18 92.8,64.92 93.2,64.66 93.59,64.41 93.98,64.16 94.38,63.91 94.77,63.67 95.16,63.44 95.56,63.22 95.95,63.02 96.34,62.82 96.74,62.64 97.13,62.45 97.52,62.28 97.92,62.11 98.31,61.95 98.71,61.8 99.1,61.65 99.49,61.5 99.89,61.35 100.28,61.2 100.67,61.06 101.07,60.92 101.46,60.78 101.85,60.66 102.25,60.53 102.64,60.4 103.03,60.27 103.43,60.14 103.82,60.01 104.21,59.89 104.61,59.78 105,59.68 105.4,59.59 105.79,59.49 106.18,59.4 106.58,59.3 106.97,59.2 107.36,59.1 107.76,59.01 108.15,58.93 108.54,58.85 108.94,58.78 109.33,58.7 109.72,58.62 110.12,58.54 110.51,58.47 110.9,58.41 111.3,58.34 111.69,58.28 112.08,58.21 112.48,58.13 112.87,58.06 113.27,57.99 113.66,57.92 114.05,57.85 114.45,57.8 114.84,57.74 115.23,57.7 115.63,57.65 116.02,57.6 116.41,57.54 116.81,57.48 117.2,57.43 117.59,57.37 117.99,57.33 118.38,57.29 118.77,57.26 119.17,57.21 119.56,57.17 119.96,57.11 120.35,57.06 120.74,57.01 121.14,56.96 121.53,56.93 121.92,56.9 122.32,56.87 122.71,56.85 123.1,56.82 123.5,56.79 123.89,56.76 124.28,56.72 124.68,56.68 125.07,56.63 125.46,56.59 125.86,56.55 126.25,56.52 126.65,56.49 127.04,56.46 127.43,56.42 127.83,56.37 128.22,56.32 128.61,56.27 129.01,56.23 129.4,56.19 129.79,56.16 130.19,56.14 130.58,56.13 130.97,56.13 131.37,56.13 131.76,56.13 132.15,56.12 132.55,56.11 132.94,56.09 133.33,56.06 133.73,56.03 134.12,56 134.52,55.97 134.91,55.95 135.3,55.94 135.7,55.92 136.09,55.91 136.48,55.89 136.88,55.87 137.27,55.85 137.66,55.82 138.06,55.79 138.45,55.77 138.84,55.75 139.24,55.73 139.63,55.71 140.02,55.68 140.42,55.66 140.81,55.64 141.21,55.61 141.6,55.59 141.99,55.56 142.39,55.54 142.78,55.53 143.17,55.52 143.57,55.51 143.96,55.5 144.35,55.49 144.75,55.47 145.14,55.45 145.53,55.43 145.93,55.42 146.32,55.4 146.71,55.38 147.11,55.37 147.5,55.35 147.89,55.33 148.29,55.31 148.68,55.29 149.08,55.28 149.47,55.27 149.86,55.25 150.26,55.25 150.65,55.24 151.04,55.24 151.44,55.23 151.83,55.22 152.22,55.2 152.62,55.18 153.01,55.17 153.4,55.15 153.8,55.13 154.19,55.11 154.58,55.09 154.98,55.07 155.37,55.06 155.77,55.05 156.16,55.04 156.55,55.03 156.95,55.02 157.34,55.02 157.73,55.01 158.13,55.01 158.52,55 158.91,54.99 159.31,54.99 159.7,54.99 160.09,54.98 160.49,54.99 160.88,54.98 161.27,54.98 161.67,54.97 162.06,54.96 162.46,54.94 162.85,54.92 163.24,54.91 163.64,54.9 164.03,54.89 164.42,54.88 164.82,54.87 165.21,54.87 165.6,54.86 166,54.85 166.39,54.85 166.78,54.84 167.18,54.83 167.57,54.82 167.96,54.81 168.36,54.81 168.75,54.8 169.14,54.79 169.54,54.79 169.93,54.78 170.33,54.76 170.72,54.75 171.11,54.74 171.51,54.73 171.9,54.73 172.29,54.72 172.69,54.72 173.08,54.72 173.47,54.72 173.87,54.72 174.26,54.71 174.65,54.71 175.05,54.7 175.44,54.7 175.83,54.7 176.23,54.7 176.62,54.69 177.02,54.69 177.41,54.68 177.8,54.68 178.2,54.67 178.59,54.66 178.98,54.65 179.38,54.64 179.77,54.63 180.16,54.62 180.56,54.61 180.95,54.6 181.34,54.6 181.74,54.6 182.13,54.59 182.52,54.59 182.92,54.58 183.31,54.57 183.7,54.56 184.1,54.56 184.49,54.55 184.89,54.54 185.28,54.54 185.67,54.53 186.07,54.53 186.46,54.53 186.85,54.53 187.25,54.53 187.64,54.54 188.03,54.53 188.43,54.53 188.82,54.52 189.21,54.51 189.61,54.51 190,54.5 190.39,54.49 190.79,54.49 191.18,54.49 191.58,54.49 191.97,54.48 192.36,54.48 192.76,54.47 193.15,54.47 193.54,54.46 193.94,54.45 194.33,54.44 194.72,54.44 195.12,54.44 195.51,54.44 195.9,54.44 196.3,54.44 196.69,54.45 197.08,54.45 197.48,54.45 197.87,54.45 198.26,54.44 198.66,54.44 199.05,54.44 199.45,54.44 199.84,54.44 200.23,54.44 200.63,54.43 201.02,54.43 201.41,54.42 201.81,54.41 202.2,54.4 202.59,54.4 202.99,54.39 203.38,54.38 203.77,54.38 204.17,54.38 204.56,54.38 204.95,54.38 205.35,54.38 205.74,54.38 206.14,54.38 206.53,54.38 206.92,54.38 207.32,54.37 207.71,54.37 208.1,54.37 208.5,54.37 208.89,54.37 209.28,54.36 209.68,54.36 210.07,54.36 210.46,54.35 210.86,54.35 211.25,54.34 211.64,54.34 212.04,54.34 212.43,54.33 212.83,54.33 213.22,54.32 213.61,54.32 214.01,54.33 214.4,54.33 214.79,54.34 215.19,54.34 215.58,54.35 215.97,54.35 216.37,54.35 216.76,54.35 217.15,54.35 217.55,54.35 217.94,54.35 218.33,54.34 218.73,54.33 219.12,54.32 219.51,54.31 219.91,54.3 220.3,54.3 220.7,54.29 221.09,54.28 221.48,54.28 221.88,54.27 222.27,54.27 222.66,54.26 223.06,54.26 223.45,54.26 223.84,54.27 224.24,54.27 224.63,54.27 225.02,54.27 225.42,54.27 225.81,54.26 226.2,54.25 226.6,54.25 226.99,54.24 227.39,54.24 227.78,54.24 228.17,54.24 228.57,54.25 228.96,54.25 229.35,54.26 229.75,54.26 230.14,54.27 230.53,54.27 230.93,54.27 231.32,54.26 231.71,54.25 232.11,54.25 232.5,54.24 232.89,54.24 233.29,54.24 233.68,54.23 234.07,54.23 234.47,54.23 234.86,54.23 235.26,54.23 235.65,54.23 236.04,54.23 236.44,54.24 236.83,54.24 237.22,54.24 237.62,54.24 238.01,54.24 238.4,54.24 238.8,54.23 239.19,54.23 239.58,54.22 239.98,54.21 240.37,54.21 240.76,54.2 241.16,54.2 241.55,54.2 241.95,54.21 242.34,54.21 242.73,54.22 243.13,54.22 243.52,54.23 243.91,54.23 244.31,54.23 244.7,54.23 245.09,54.23 245.49,54.22 245.88,54.21 246.27,54.21 246.67,54.2 247.06,54.19 247.45,54.19 247.85,54.19 248.24,54.18 248.64,54.18 249.03,54.17 249.42,54.17 249.82,54.17 250.21,54.17 250.6,54.17 251,54.17 251.39,54.17 251.78,54.16 252.18,54.16 252.57,54.16 252.96,54.15 253.36,54.15 253.75,54.15 254.14,54.15 254.54,54.15 254.93,54.15 255.32,54.16 255.72,54.16 256.11,54.17 256.51,54.17 256.9,54.17 257.29,54.16 257.69,54.14 258.08,54.12 258.47,54.09 258.87,54.05 259.26,54.02 259.65,54 260.05,53.98 260.44,53.97 260.83,53.97 261.23,53.97 261.62,53.97" stroke-dasharray="none" stroke="rgb(31,120,180)" stroke-width="0.75" opacity="1" stroke-opacity="1" fill="none"/>
          </g>
          <g id="Fig:densplot_01.xyplot.lines.group.3.panel.1.1.1">
            <polyline id="Fig:densplot_01.xyplot.lines.group.3.panel.1.1.1.1" points="60.94,53.97 61.33,53.97 61.72,53.98 62.11,54.01 62.51,54.11 62.9,54.42 63.29,55.21 63.68,57 64.07,60.51 64.47,66.55 64.86,75.6 65.25,87.4 65.64,100.75 66.03,113.8 66.42,124.74 66.82,132.45 67.21,136.73 67.6,138.04 67.99,137.31 68.38,135.32 68.77,132.63 69.17,129.58 69.56,126.37 69.95,123.13 70.34,119.95 70.73,116.87 71.13,113.91 71.52,111.1 71.91,108.43 72.3,105.91 72.69,103.54 73.08,101.33 73.48,99.28 73.87,97.4 74.26,95.7 74.65,94.18 75.04,92.8 75.44,91.51 75.83,90.25 76.22,89.01 76.61,87.78 77,86.58 77.39,85.44 77.79,84.39 78.18,83.42 78.57,82.5 78.96,81.6 79.35,80.72 79.75,79.87 80.14,79.05 80.53,78.28 80.92,77.53 81.31,76.8 81.7,76.08 82.1,75.36 82.49,74.66 82.88,73.98 83.27,73.33 83.66,72.7 84.05,72.1 84.45,71.51 84.84,70.96 85.23,70.46 85.62,70.01 86.01,69.6 86.41,69.22 86.8,68.84 87.19,68.44 87.58,68.02 87.97,67.58 88.36,67.15 88.76,66.74 89.15,66.36 89.54,66 89.93,65.67 90.32,65.35 90.72,65.04 91.11,64.75 91.5,64.47 91.89,64.2 92.28,63.94 92.67,63.68 93.07,63.43 93.46,63.22 93.85,63.03 94.24,62.85 94.63,62.67 95.02,62.49 95.42,62.3 95.81,62.12 96.2,61.94 96.59,61.78 96.98,61.61 97.38,61.44 97.77,61.26 98.16,61.07 98.55,60.88 98.94,60.7 99.33,60.53 99.73,60.38 100.12,60.25 100.51,60.14 100.9,60.03 101.29,59.92 101.69,59.79 102.08,59.65 102.47,59.5 102.86,59.37 103.25,59.24 103.64,59.13 104.04,59.04 104.43,58.96 104.82,58.87 105.21,58.78 105.6,58.69 105.99,58.59 106.39,58.49 106.78,58.41 107.17,58.34 107.56,58.28 107.95,58.23 108.35,58.18 108.74,58.13 109.13,58.07 109.52,58.01 109.91,57.93 110.3,57.85 110.7,57.78 111.09,57.71 111.48,57.65 111.87,57.59 112.26,57.53 112.66,57.48 113.05,57.42 113.44,57.37 113.83,57.33 114.22,57.29 114.61,57.25 115.01,57.21 115.4,57.17 115.79,57.14 116.18,57.1 116.57,57.05 116.97,56.99 117.36,56.93 117.75,56.87 118.14,56.8 118.53,56.74 118.92,56.69 119.32,56.64 119.71,56.61 120.1,56.59 120.49,56.57 120.88,56.56 121.27,56.54 121.67,56.5 122.06,56.45 122.45,56.39 122.84,56.33 123.23,56.29 123.63,56.25 124.02,56.23 124.41,56.21 124.8,56.19 125.19,56.18 125.58,56.17 125.98,56.16 126.37,56.14 126.76,56.12 127.15,56.09 127.54,56.06 127.94,56.03 128.33,56 128.72,55.96 129.11,55.93 129.5,55.9 129.89,55.89 130.29,55.87 130.68,55.84 131.07,55.81 131.46,55.77 131.85,55.74 132.24,55.71 132.64,55.69 133.03,55.67 133.42,55.65 133.81,55.64 134.2,55.62 134.6,55.6 134.99,55.59 135.38,55.58 135.77,55.56 136.16,55.54 136.55,55.51 136.95,55.49 137.34,55.46 137.73,55.44 138.12,55.42 138.51,55.41 138.91,55.41 139.3,55.41 139.69,55.4 140.08,55.4 140.47,55.38 140.86,55.36 141.26,55.33 141.65,55.31 142.04,55.3 142.43,55.29 142.82,55.28 143.21,55.27 143.61,55.26 144,55.25 144.39,55.23 144.78,55.22 145.17,55.21 145.57,55.19 145.96,55.18 146.35,55.16 146.74,55.15 147.13,55.14 147.52,55.12 147.92,55.11 148.31,55.1 148.7,55.08 149.09,55.06 149.48,55.04 149.88,55.02 150.27,55.01 150.66,54.99 151.05,54.98 151.44,54.97 151.83,54.96 152.23,54.95 152.62,54.95 153.01,54.94 153.4,54.93 153.79,54.92 154.19,54.9 154.58,54.88 154.97,54.86 155.36,54.83 155.75,54.82 156.14,54.81 156.54,54.81 156.93,54.81 157.32,54.81 157.71,54.81 158.1,54.8 158.49,54.8 158.89,54.8 159.28,54.79 159.67,54.79 160.06,54.8 160.45,54.8 160.85,54.8 161.24,54.79 161.63,54.78 162.02,54.77 162.41,54.75 162.8,54.74 163.2,54.73 163.59,54.72 163.98,54.72 164.37,54.73 164.76,54.73 165.16,54.73 165.55,54.73 165.94,54.72 166.33,54.71 166.72,54.69 167.11,54.68 167.51,54.67 167.9,54.67 168.29,54.67 168.68,54.67 169.07,54.67 169.46,54.66 169.86,54.65 170.25,54.62 170.64,54.6 171.03,54.59 171.42,54.59 171.82,54.59 172.21,54.59 172.6,54.59 172.99,54.59 173.38,54.57 173.77,54.56 174.17,54.54 174.56,54.53 174.95,54.52 175.34,54.53 175.73,54.53 176.13,54.54 176.52,54.55 176.91,54.54 177.3,54.54 177.69,54.53 178.08,54.52 178.48,54.52 178.87,54.52 179.26,54.52 179.65,54.53 180.04,54.53 180.43,54.53 180.83,54.52 181.22,54.5 181.61,54.49 182,54.48 182.39,54.48 182.79,54.48 183.18,54.48 183.57,54.48 183.96,54.47 184.35,54.47 184.74,54.47 185.14,54.47 185.53,54.48 185.92,54.48 186.31,54.48 186.7,54.47 187.1,54.46 187.49,54.45 187.88,54.44 188.27,54.42 188.66,54.41 189.05,54.4 189.45,54.4 189.84,54.39 190.23,54.39 190.62,54.39 191.01,54.38 191.4,54.38 191.8,54.38 192.19,54.38 192.58,54.39 192.97,54.39 193.36,54.39 193.76,54.39 194.15,54.39 194.54,54.39 194.93,54.39 195.32,54.4 195.71,54.4 196.11,54.41 196.5,54.4 196.89,54.4 197.28,54.39 197.67,54.38 198.07,54.37 198.46,54.35 198.85,54.34 199.24,54.32 199.63,54.31 200.02,54.3 200.42,54.3 200.81,54.3 201.2,54.31 201.59,54.31 201.98,54.31 202.38,54.32 202.77,54.32 203.16,54.32 203.55,54.32 203.94,54.31 204.33,54.3 204.73,54.29 205.12,54.29 205.51,54.28 205.9,54.28 206.29,54.27 206.68,54.27 207.08,54.27 207.47,54.27 207.86,54.28 208.25,54.29 208.64,54.29 209.04,54.29 209.43,54.29 209.82,54.29 210.21,54.28 210.6,54.28 210.99,54.28 211.39,54.28 211.78,54.28 212.17,54.28 212.56,54.27 212.95,54.27 213.35,54.27 213.74,54.26 214.13,54.25 214.52,54.24 214.91,54.24 215.3,54.24 215.7,54.24 216.09,54.23 216.48,54.23 216.87,54.23 217.26,54.23 217.65,54.23 218.05,54.24 218.44,54.25 218.83,54.26 219.22,54.27 219.61,54.27 220.01,54.27 220.4,54.26 220.79,54.24 221.18,54.23 221.57,54.22 221.96,54.22 222.36,54.21 222.75,54.21 223.14,54.21 223.53,54.2 223.92,54.2 224.32,54.2 224.71,54.2 225.1,54.2 225.49,54.2 225.88,54.21 226.27,54.21 226.67,54.22 227.06,54.22 227.45,54.22 227.84,54.22 228.23,54.22 228.62,54.21 229.02,54.21 229.41,54.2 229.8,54.19 230.19,54.18 230.58,54.18 230.98,54.18 231.37,54.18 231.76,54.19 232.15,54.19 232.54,54.19 232.93,54.19 233.33,54.2 233.72,54.2 234.11,54.2 234.5,54.2 234.89,54.19 235.29,54.19 235.68,54.18 236.07,54.17 236.46,54.17 236.85,54.17 237.24,54.18 237.64,54.18 238.03,54.18 238.42,54.17 238.81,54.17 239.2,54.17 239.6,54.17 239.99,54.18 240.38,54.19 240.77,54.19 241.16,54.19 241.55,54.18 241.95,54.17 242.34,54.17 242.73,54.16 243.12,54.15 243.51,54.15 243.9,54.14 244.3,54.14 244.69,54.15 245.08,54.15 245.47,54.15 245.86,54.15 246.26,54.15 246.65,54.15 247.04,54.15 247.43,54.15 247.82,54.15 248.21,54.15 248.61,54.14 249,54.14 249.39,54.13 249.78,54.12 250.17,54.12 250.57,54.12 250.96,54.13 251.35,54.13 251.74,54.14 252.13,54.14 252.52,54.14 252.92,54.14 253.31,54.14 253.7,54.14 254.09,54.14 254.48,54.13 254.87,54.13 255.27,54.12 255.66,54.12 256.05,54.12 256.44,54.12 256.83,54.12 257.23,54.12 257.62,54.11 258.01,54.1 258.4,54.07 258.79,54.04 259.18,54.01 259.58,53.99 259.97,53.98 260.36,53.97 260.75,53.97 261.14,53.97" stroke-dasharray="none" stroke="rgb(31,120,180)" stroke-width="0.75" opacity="1" stroke-opacity="1" fill="none"/>
          </g>
          <g id="Fig:densplot_01.xyplot.lines.group.4.panel.1.1.1">
            <polyline id="Fig:densplot_01.xyplot.lines.group.4.panel.1.1.1.1" points="59.64,53.97 60.03,53.98 60.43,54.03 60.82,54.18 61.22,54.59 61.61,55.59 62.01,57.72 62.4,61.7 62.8,68.21 63.19,77.57 63.59,89.35 63.98,102.3 64.38,114.67 64.77,124.82 65.17,131.76 65.56,135.35 65.96,136.2 66.35,135.16 66.75,132.96 67.14,130.12 67.54,127.01 67.93,123.83 68.33,120.69 68.72,117.62 69.12,114.63 69.51,111.72 69.91,108.88 70.3,106.15 70.7,103.56 71.09,101.14 71.49,98.92 71.88,96.88 72.28,95.01 72.67,93.28 73.07,91.67 73.46,90.18 73.86,88.78 74.25,87.46 74.65,86.18 75.04,84.94 75.44,83.74 75.83,82.6 76.23,81.55 76.62,80.59 77.02,79.72 77.41,78.91 77.81,78.14 78.2,77.38 78.6,76.64 78.99,75.94 79.39,75.28 79.78,74.66 80.18,74.08 80.57,73.54 80.97,73.01 81.36,72.51 81.76,72.02 82.15,71.57 82.55,71.16 82.94,70.79 83.34,70.45 83.73,70.13 84.13,69.81 84.52,69.49 84.92,69.16 85.31,68.83 85.71,68.51 86.1,68.2 86.5,67.91 86.89,67.63 87.29,67.35 87.68,67.08 88.08,66.81 88.47,66.55 88.87,66.28 89.26,66 89.66,65.72 90.05,65.44 90.45,65.17 90.84,64.9 91.24,64.64 91.63,64.39 92.03,64.15 92.42,63.94 92.82,63.75 93.21,63.56 93.61,63.38 94,63.17 94.4,62.94 94.79,62.7 95.19,62.46 95.58,62.24 95.98,62.03 96.37,61.86 96.77,61.71 97.16,61.58 97.56,61.47 97.95,61.37 98.35,61.26 98.74,61.16 99.14,61.05 99.53,60.95 99.93,60.83 100.32,60.7 100.72,60.56 101.11,60.41 101.51,60.27 101.9,60.13 102.3,60 102.69,59.88 103.09,59.76 103.48,59.65 103.88,59.54 104.27,59.44 104.67,59.33 105.06,59.23 105.46,59.13 105.85,59.03 106.25,58.94 106.64,58.85 107.04,58.76 107.43,58.67 107.83,58.57 108.22,58.47 108.62,58.37 109.01,58.28 109.41,58.2 109.8,58.14 110.2,58.1 110.59,58.05 110.99,58 111.38,57.94 111.78,57.87 112.17,57.8 112.57,57.73 112.96,57.67 113.36,57.61 113.75,57.55 114.15,57.49 114.54,57.43 114.94,57.36 115.33,57.29 115.73,57.23 116.12,57.17 116.52,57.12 116.91,57.07 117.31,57.02 117.7,56.98 118.1,56.93 118.49,56.9 118.89,56.86 119.28,56.83 119.68,56.8 120.07,56.76 120.47,56.72 120.86,56.69 121.26,56.64 121.65,56.59 122.05,56.55 122.44,56.5 122.84,56.47 123.23,56.43 123.63,56.4 124.02,56.36 124.42,56.33 124.81,56.29 125.21,56.24 125.6,56.2 126,56.15 126.39,56.1 126.79,56.06 127.18,56.02 127.58,55.99 127.97,55.96 128.37,55.94 128.76,55.92 129.16,55.9 129.55,55.88 129.95,55.87 130.34,55.86 130.74,55.84 131.13,55.82 131.53,55.8 131.92,55.77 132.32,55.76 132.71,55.74 133.11,55.72 133.5,55.71 133.9,55.69 134.29,55.67 134.69,55.65 135.08,55.63 135.48,55.62 135.87,55.6 136.27,55.59 136.66,55.57 137.06,55.56 137.45,55.54 137.85,55.52 138.24,55.51 138.64,55.5 139.03,55.48 139.43,55.46 139.82,55.44 140.22,55.41 140.61,55.38 141.01,55.36 141.4,55.35 141.8,55.33 142.19,55.32 142.59,55.31 142.98,55.29 143.38,55.26 143.77,55.23 144.17,55.2 144.56,55.18 144.96,55.15 145.35,55.14 145.75,55.13 146.14,55.13 146.54,55.13 146.93,55.13 147.33,55.13 147.72,55.12 148.12,55.1 148.51,55.08 148.91,55.05 149.3,55.02 149.7,55 150.09,54.99 150.49,54.99 150.88,55 151.28,55 151.67,55 152.07,55 152.46,54.98 152.86,54.96 153.25,54.93 153.65,54.91 154.04,54.9 154.44,54.9 154.83,54.9 155.23,54.9 155.62,54.91 156.02,54.91 156.41,54.9 156.81,54.89 157.2,54.88 157.6,54.86 157.99,54.85 158.39,54.83 158.78,54.82 159.18,54.82 159.57,54.81 159.97,54.81 160.36,54.81 160.76,54.81 161.15,54.8 161.55,54.79 161.94,54.78 162.34,54.77 162.73,54.76 163.13,54.76 163.52,54.76 163.92,54.76 164.31,54.76 164.71,54.75 165.1,54.74 165.5,54.73 165.89,54.72 166.29,54.72 166.68,54.72 167.08,54.72 167.47,54.72 167.87,54.72 168.26,54.71 168.66,54.69 169.05,54.68 169.45,54.67 169.84,54.66 170.24,54.65 170.63,54.65 171.03,54.64 171.42,54.63 171.82,54.62 172.21,54.61 172.61,54.61 173,54.61 173.4,54.61 173.79,54.6 174.19,54.59 174.58,54.57 174.98,54.55 175.37,54.54 175.77,54.53 176.16,54.52 176.56,54.52 176.95,54.52 177.35,54.52 177.74,54.53 178.14,54.53 178.53,54.52 178.93,54.52 179.32,54.51 179.72,54.5 180.11,54.5 180.51,54.5 180.9,54.5 181.3,54.51 181.69,54.51 182.09,54.51 182.48,54.51 182.88,54.51 183.27,54.51 183.67,54.51 184.06,54.51 184.46,54.5 184.85,54.49 185.25,54.48 185.64,54.47 186.04,54.46 186.43,54.45 186.83,54.45 187.22,54.44 187.62,54.44 188.01,54.45 188.41,54.45 188.8,54.45 189.2,54.45 189.59,54.44 189.99,54.43 190.38,54.43 190.78,54.42 191.17,54.42 191.57,54.42 191.96,54.42 192.36,54.42 192.75,54.42 193.15,54.42 193.54,54.42 193.94,54.42 194.33,54.42 194.73,54.41 195.12,54.41 195.52,54.41 195.91,54.41 196.31,54.41 196.7,54.41 197.1,54.4 197.49,54.4 197.89,54.39 198.28,54.38 198.68,54.36 199.07,54.35 199.47,54.33 199.86,54.33 200.26,54.32 200.65,54.33 201.05,54.33 201.44,54.33 201.84,54.33 202.23,54.33 202.63,54.33 203.02,54.33 203.42,54.33 203.81,54.33 204.21,54.33 204.6,54.33 205,54.33 205.39,54.32 205.79,54.32 206.18,54.31 206.58,54.31 206.97,54.3 207.37,54.3 207.76,54.3 208.16,54.3 208.55,54.3 208.95,54.3 209.34,54.3 209.74,54.3 210.13,54.3 210.53,54.3 210.92,54.31 211.32,54.31 211.71,54.31 212.11,54.3 212.5,54.3 212.9,54.3 213.29,54.29 213.69,54.28 214.08,54.28 214.48,54.28 214.87,54.27 215.27,54.27 215.66,54.27 216.06,54.27 216.45,54.26 216.85,54.26 217.24,54.26 217.64,54.26 218.03,54.26 218.43,54.26 218.82,54.26 219.22,54.26 219.61,54.25 220.01,54.25 220.4,54.25 220.8,54.26 221.19,54.27 221.59,54.27 221.98,54.28 222.38,54.27 222.77,54.27 223.17,54.26 223.56,54.25 223.96,54.24 224.35,54.23 224.75,54.23 225.14,54.22 225.54,54.22 225.93,54.21 226.33,54.2 226.72,54.19 227.12,54.18 227.51,54.18 227.91,54.18 228.3,54.19 228.7,54.19 229.09,54.2 229.49,54.2 229.88,54.2 230.28,54.2 230.67,54.2 231.07,54.2 231.46,54.2 231.86,54.2 232.25,54.2 232.65,54.2 233.04,54.2 233.44,54.2 233.83,54.19 234.23,54.19 234.62,54.19 235.02,54.19 235.41,54.19 235.81,54.19 236.2,54.18 236.6,54.18 236.99,54.18 237.39,54.18 237.78,54.18 238.18,54.18 238.57,54.17 238.97,54.17 239.36,54.17 239.76,54.17 240.15,54.17 240.55,54.17 240.94,54.18 241.34,54.17 241.73,54.17 242.13,54.17 242.52,54.16 242.92,54.16 243.31,54.16 243.71,54.16 244.1,54.16 244.5,54.17 244.89,54.17 245.29,54.17 245.68,54.17 246.08,54.17 246.47,54.17 246.87,54.17 247.26,54.17 247.66,54.18 248.05,54.19 248.45,54.19 248.84,54.19 249.24,54.19 249.63,54.19 250.03,54.19 250.42,54.19 250.82,54.18 251.21,54.18 251.61,54.17 252,54.17 252.4,54.16 252.79,54.15 253.19,54.15 253.58,54.14 253.98,54.14 254.37,54.13 254.77,54.13 255.16,54.14 255.56,54.14 255.95,54.14 256.35,54.14 256.74,54.14 257.14,54.13 257.53,54.12 257.93,54.09 258.32,54.07 258.72,54.04 259.11,54.01 259.51,53.99 259.9,53.98 260.3,53.97 260.69,53.97 261.09,53.97 261.48,53.97" stroke-dasharray="none" stroke="rgb(31,120,180)" stroke-width="0.75" opacity="1" stroke-opacity="1" fill="none"/>
          </g>
          <g id="Fig:densplot_01.xyplot.lines.group.5.panel.1.1.1">
            <polyline id="Fig:densplot_01.xyplot.lines.group.5.panel.1.1.1.1" points="61.28,53.97 61.67,53.97 62.06,54 62.45,54.15 62.84,54.76 63.23,56.89 63.62,62.8 64.01,75.96 64.4,97.91 64.79,125.72 65.18,152.28 65.57,170.82 65.96,179.06 66.35,179 66.74,174.12 67.12,167.15 67.51,159.61 67.9,152.16 68.29,145.05 68.68,138.36 69.07,132.25 69.46,126.86 69.85,122.14 70.24,117.88 70.63,113.93 71.02,110.29 71.41,107.04 71.8,104.14 72.19,101.49 72.58,99.01 72.97,96.63 73.36,94.39 73.75,92.38 74.14,90.63 74.52,89.07 74.91,87.62 75.3,86.21 75.69,84.83 76.08,83.48 76.47,82.18 76.86,80.97 77.25,79.9 77.64,78.94 78.03,78.02 78.42,77.09 78.81,76.15 79.2,75.23 79.59,74.32 79.98,73.46 80.37,72.65 80.76,71.93 81.15,71.31 81.54,70.74 81.93,70.17 82.31,69.58 82.7,69 83.09,68.46 83.48,67.95 83.87,67.47 84.26,67 84.65,66.56 85.04,66.14 85.43,65.74 85.82,65.35 86.21,64.99 86.6,64.64 86.99,64.3 87.38,63.94 87.77,63.62 88.16,63.35 88.55,63.12 88.94,62.9 89.33,62.66 89.72,62.4 90.1,62.12 90.49,61.83 90.88,61.55 91.27,61.31 91.66,61.11 92.05,60.93 92.44,60.75 92.83,60.59 93.22,60.43 93.61,60.27 94,60.09 94.39,59.94 94.78,59.83 95.17,59.74 95.56,59.61 95.95,59.44 96.34,59.28 96.73,59.15 97.12,59.03 97.5,58.92 97.89,58.81 98.28,58.69 98.67,58.57 99.06,58.44 99.45,58.34 99.84,58.27 100.23,58.22 100.62,58.16 101.01,58.07 101.4,57.95 101.79,57.8 102.18,57.66 102.57,57.57 102.96,57.52 103.35,57.47 103.74,57.4 104.13,57.31 104.52,57.24 104.91,57.18 105.29,57.14 105.68,57.1 106.07,57.04 106.46,56.98 106.85,56.9 107.24,56.84 107.63,56.78 108.02,56.74 108.41,56.71 108.8,56.67 109.19,56.61 109.58,56.55 109.97,56.48 110.36,56.43 110.75,56.4 111.14,56.39 111.53,56.38 111.92,56.37 112.31,56.34 112.69,56.3 113.08,56.24 113.47,56.18 113.86,56.12 114.25,56.06 114.64,56 115.03,55.95 115.42,55.93 115.81,55.93 116.2,55.93 116.59,55.92 116.98,55.91 117.37,55.9 117.76,55.88 118.15,55.84 118.54,55.78 118.93,55.71 119.32,55.66 119.71,55.63 120.1,55.6 120.48,55.58 120.87,55.57 121.26,55.56 121.65,55.56 122.04,55.54 122.43,55.53 122.82,55.53 123.21,55.52 123.6,55.51 123.99,55.48 124.38,55.45 124.77,55.42 125.16,55.39 125.55,55.37 125.94,55.34 126.33,55.31 126.72,55.29 127.11,55.29 127.5,55.28 127.89,55.24 128.27,55.2 128.66,55.18 129.05,55.18 129.44,55.18 129.83,55.17 130.22,55.15 130.61,55.13 131,55.1 131.39,55.08 131.78,55.06 132.17,55.05 132.56,55.03 132.95,55.01 133.34,54.99 133.73,54.96 134.12,54.94 134.51,54.93 134.9,54.93 135.29,54.95 135.67,54.96 136.06,54.97 136.45,54.96 136.84,54.94 137.23,54.91 137.62,54.89 138.01,54.88 138.4,54.89 138.79,54.88 139.18,54.85 139.57,54.83 139.96,54.81 140.35,54.81 140.74,54.8 141.13,54.79 141.52,54.79 141.91,54.8 142.3,54.82 142.69,54.83 143.08,54.82 143.46,54.78 143.85,54.74 144.24,54.7 144.63,54.69 145.02,54.68 145.41,54.69 145.8,54.7 146.19,54.71 146.58,54.71 146.97,54.7 147.36,54.68 147.75,54.67 148.14,54.66 148.53,54.65 148.92,54.64 149.31,54.64 149.7,54.66 150.09,54.66 150.48,54.66 150.87,54.66 151.25,54.65 151.64,54.64 152.03,54.63 152.42,54.6 152.81,54.59 153.2,54.58 153.59,54.57 153.98,54.56 154.37,54.54 154.76,54.52 155.15,54.51 155.54,54.51 155.93,54.52 156.32,54.53 156.71,54.54 157.1,54.53 157.49,54.52 157.88,54.51 158.27,54.49 158.65,54.49 159.04,54.49 159.43,54.49 159.82,54.48 160.21,54.47 160.6,54.47 160.99,54.46 161.38,54.44 161.77,54.43 162.16,54.43 162.55,54.43 162.94,54.43 163.33,54.44 163.72,54.44 164.11,54.44 164.5,54.43 164.89,54.42 165.28,54.41 165.67,54.4 166.06,54.4 166.44,54.4 166.83,54.4 167.22,54.39 167.61,54.39 168,54.38 168.39,54.38 168.78,54.38 169.17,54.37 169.56,54.37 169.95,54.37 170.34,54.36 170.73,54.36 171.12,54.35 171.51,54.35 171.9,54.36 172.29,54.35 172.68,54.35 173.07,54.34 173.46,54.33 173.84,54.33 174.23,54.32 174.62,54.31 175.01,54.31 175.4,54.3 175.79,54.3 176.18,54.29 176.57,54.29 176.96,54.3 177.35,54.31 177.74,54.32 178.13,54.32 178.52,54.32 178.91,54.31 179.3,54.31 179.69,54.31 180.08,54.3 180.47,54.28 180.86,54.27 181.25,54.25 181.63,54.25 182.02,54.25 182.41,54.26 182.8,54.27 183.19,54.28 183.58,54.29 183.97,54.29 184.36,54.29 184.75,54.29 185.14,54.29 185.53,54.28 185.92,54.28 186.31,54.28 186.7,54.28 187.09,54.27 187.48,54.26 187.87,54.25 188.26,54.24 188.65,54.24 189.04,54.25 189.42,54.26 189.81,54.26 190.2,54.26 190.59,54.25 190.98,54.24 191.37,54.23 191.76,54.22 192.15,54.21 192.54,54.2 192.93,54.19 193.32,54.18 193.71,54.18 194.1,54.17 194.49,54.17 194.88,54.18 195.27,54.19 195.66,54.2 196.05,54.2 196.44,54.2 196.82,54.2 197.21,54.2 197.6,54.2 197.99,54.19 198.38,54.17 198.77,54.16 199.16,54.15 199.55,54.16 199.94,54.17 200.33,54.18 200.72,54.18 201.11,54.18 201.5,54.18 201.89,54.18 202.28,54.18 202.67,54.18 203.06,54.17 203.45,54.17 203.84,54.16 204.23,54.16 204.61,54.15 205,54.14 205.39,54.13 205.78,54.13 206.17,54.13 206.56,54.14 206.95,54.14 207.34,54.15 207.73,54.15 208.12,54.15 208.51,54.15 208.9,54.14 209.29,54.13 209.68,54.12 210.07,54.11 210.46,54.11 210.85,54.11 211.24,54.12 211.63,54.14 212.01,54.15 212.4,54.15 212.79,54.15 213.18,54.15 213.57,54.15 213.96,54.16 214.35,54.17 214.74,54.17 215.13,54.16 215.52,54.15 215.91,54.14 216.3,54.13 216.69,54.13 217.08,54.13 217.47,54.14 217.86,54.14 218.25,54.14 218.64,54.15 219.03,54.15 219.42,54.15 219.8,54.15 220.19,54.15 220.58,54.14 220.97,54.14 221.36,54.14 221.75,54.13 222.14,54.13 222.53,54.12 222.92,54.12 223.31,54.13 223.7,54.13 224.09,54.12 224.48,54.11 224.87,54.11 225.26,54.1 225.65,54.1 226.04,54.09 226.43,54.09 226.82,54.09 227.21,54.09 227.59,54.1 227.98,54.1 228.37,54.1 228.76,54.09 229.15,54.08 229.54,54.08 229.93,54.09 230.32,54.1 230.71,54.11 231.1,54.12 231.49,54.11 231.88,54.09 232.27,54.08 232.66,54.08 233.05,54.08 233.44,54.1 233.83,54.11 234.22,54.12 234.61,54.12 234.99,54.11 235.38,54.11 235.77,54.1 236.16,54.1 236.55,54.09 236.94,54.09 237.33,54.08 237.72,54.08 238.11,54.08 238.5,54.08 238.89,54.08 239.28,54.08 239.67,54.08 240.06,54.08 240.45,54.08 240.84,54.08 241.23,54.08 241.62,54.08 242.01,54.08 242.4,54.08 242.78,54.08 243.17,54.08 243.56,54.07 243.95,54.07 244.34,54.06 244.73,54.06 245.12,54.06 245.51,54.07 245.9,54.08 246.29,54.09 246.68,54.09 247.07,54.08 247.46,54.07 247.85,54.07 248.24,54.06 248.63,54.06 249.02,54.06 249.41,54.06 249.8,54.07 250.18,54.07 250.57,54.07 250.96,54.07 251.35,54.07 251.74,54.07 252.13,54.06 252.52,54.06 252.91,54.05 253.3,54.05 253.69,54.05 254.08,54.05 254.47,54.06 254.86,54.07 255.25,54.07 255.64,54.07 256.03,54.07 256.42,54.06 256.81,54.06 257.2,54.04 257.59,54.03 257.97,54.01 258.36,54 258.75,53.99 259.14,53.97 259.53,53.97 259.92,53.97 260.31,53.97" stroke-dasharray="none" stroke="rgb(31,120,180)" stroke-width="0.75" opacity="1" stroke-opacity="1" fill="none"/>
          </g>
          <g id="Fig:densplot_01.xyplot.lines.group.6.panel.1.1.1">
            <polyline id="Fig:densplot_01.xyplot.lines.group.6.panel.1.1.1.1" points="61.47,53.97 61.86,53.98 62.25,54.05 62.64,54.53 63.02,56.85 63.41,65.1 63.8,86.01 64.19,123.02 64.58,168.3 64.97,205.25 65.35,222.22 65.74,220.77 66.13,209.66 66.52,195.82 66.91,182.26 67.3,170 67.68,159.12 68.07,149.44 68.46,140.95 68.85,133.58 69.24,127.12 69.63,121.46 70.01,116.5 70.4,112.24 70.79,108.53 71.18,105.05 71.57,101.68 71.96,98.64 72.34,95.99 72.73,93.56 73.12,91.38 73.51,89.46 73.9,87.63 74.29,85.75 74.67,83.89 75.06,82.21 75.45,80.78 75.84,79.47 76.23,78.18 76.61,76.94 77,75.75 77.39,74.62 77.78,73.64 78.17,72.78 78.56,71.96 78.94,71.16 79.33,70.37 79.72,69.62 80.11,68.94 80.5,68.36 80.89,67.79 81.27,67.18 81.66,66.58 82.05,66 82.44,65.45 82.83,64.93 83.22,64.5 83.6,64.15 83.99,63.83 84.38,63.49 84.77,63.12 85.16,62.77 85.55,62.46 85.93,62.15 86.32,61.82 86.71,61.52 87.1,61.24 87.49,60.96 87.87,60.71 88.26,60.5 88.65,60.34 89.04,60.18 89.43,60 89.82,59.77 90.2,59.55 90.59,59.39 90.98,59.27 91.37,59.14 91.76,59.01 92.15,58.91 92.53,58.83 92.92,58.72 93.31,58.56 93.7,58.37 94.09,58.18 94.48,58.01 94.86,57.92 95.25,57.88 95.64,57.78 96.03,57.61 96.42,57.45 96.81,57.33 97.19,57.26 97.58,57.22 97.97,57.2 98.36,57.19 98.75,57.16 99.14,57.1 99.52,57 99.91,56.9 100.3,56.82 100.69,56.75 101.08,56.69 101.46,56.64 101.85,56.61 102.24,56.55 102.63,56.48 103.02,56.44 103.41,56.42 103.79,56.37 104.18,56.27 104.57,56.13 104.96,56.03 105.35,55.99 105.74,55.99 106.12,56 106.51,55.96 106.9,55.9 107.29,55.83 107.68,55.79 108.07,55.78 108.45,55.79 108.84,55.79 109.23,55.76 109.62,55.7 110.01,55.65 110.4,55.62 110.78,55.59 111.17,55.57 111.56,55.55 111.95,55.53 112.34,55.5 112.72,55.49 113.11,55.45 113.5,55.38 113.89,55.33 114.28,55.3 114.67,55.29 115.05,55.3 115.44,55.3 115.83,55.29 116.22,55.3 116.61,55.33 117,55.3 117.38,55.23 117.77,55.18 118.16,55.16 118.55,55.17 118.94,55.17 119.33,55.13 119.71,55.08 120.1,55.07 120.49,55.08 120.88,55.09 121.27,55.07 121.66,55.04 122.04,54.99 122.43,54.95 122.82,54.93 123.21,54.92 123.6,54.91 123.98,54.92 124.37,54.93 124.76,54.92 125.15,54.89 125.54,54.86 125.93,54.84 126.31,54.84 126.7,54.84 127.09,54.84 127.48,54.82 127.87,54.78 128.26,54.74 128.64,54.74 129.03,54.75 129.42,54.76 129.81,54.75 130.2,54.73 130.59,54.72 130.97,54.7 131.36,54.68 131.75,54.66 132.14,54.65 132.53,54.64 132.92,54.65 133.3,54.64 133.69,54.64 134.08,54.64 134.47,54.62 134.86,54.59 135.25,54.57 135.63,54.57 136.02,54.58 136.41,54.59 136.8,54.59 137.19,54.59 137.57,54.6 137.96,54.59 138.35,54.58 138.74,54.56 139.13,54.53 139.52,54.52 139.9,54.53 140.29,54.55 140.68,54.55 141.07,54.52 141.46,54.49 141.85,54.5 142.23,54.5 142.62,54.49 143.01,54.47 143.4,54.47 143.79,54.48 144.18,54.47 144.56,54.45 144.95,54.42 145.34,54.4 145.73,54.41 146.12,54.42 146.51,54.43 146.89,54.44 147.28,54.45 147.67,54.45 148.06,54.44 148.45,54.42 148.83,54.39 149.22,54.38 149.61,54.37 150,54.37 150.39,54.36 150.78,54.36 151.16,54.36 151.55,54.37 151.94,54.37 152.33,54.36 152.72,54.36 153.11,54.36 153.49,54.36 153.88,54.35 154.27,54.33 154.66,54.32 155.05,54.31 155.44,54.32 155.82,54.32 156.21,54.31 156.6,54.3 156.99,54.3 157.38,54.32 157.77,54.35 158.15,54.34 158.54,54.32 158.93,54.3 159.32,54.29 159.71,54.28 160.1,54.29 160.48,54.3 160.87,54.31 161.26,54.29 161.65,54.26 162.04,54.24 162.42,54.23 162.81,54.22 163.2,54.24 163.59,54.25 163.98,54.26 164.37,54.25 164.75,54.25 165.14,54.24 165.53,54.24 165.92,54.25 166.31,54.26 166.7,54.25 167.08,54.24 167.47,54.23 167.86,54.22 168.25,54.22 168.64,54.22 169.03,54.23 169.41,54.23 169.8,54.22 170.19,54.19 170.58,54.17 170.97,54.17 171.36,54.18 171.74,54.2 172.13,54.21 172.52,54.22 172.91,54.22 173.3,54.21 173.68,54.2 174.07,54.18 174.46,54.17 174.85,54.16 175.24,54.16 175.63,54.18 176.01,54.19 176.4,54.2 176.79,54.19 177.18,54.19 177.57,54.18 177.96,54.17 178.34,54.17 178.73,54.17 179.12,54.17 179.51,54.17 179.9,54.17 180.29,54.17 180.67,54.17 181.06,54.17 181.45,54.17 181.84,54.17 182.23,54.17 182.62,54.18 183,54.2 183.39,54.21 183.78,54.19 184.17,54.16 184.56,54.13 184.94,54.11 185.33,54.12 185.72,54.13 186.11,54.14 186.5,54.14 186.89,54.13 187.27,54.13 187.66,54.12 188.05,54.13 188.44,54.14 188.83,54.15 189.22,54.15 189.6,54.15 189.99,54.15 190.38,54.15 190.77,54.15 191.16,54.14 191.55,54.14 191.93,54.15 192.32,54.15 192.71,54.15 193.1,54.14 193.49,54.13 193.88,54.12 194.26,54.11 194.65,54.11 195.04,54.1 195.43,54.1 195.82,54.11 196.21,54.11 196.59,54.11 196.98,54.1 197.37,54.09 197.76,54.1 198.15,54.1 198.53,54.11 198.92,54.11 199.31,54.11 199.7,54.1 200.09,54.1 200.48,54.1 200.86,54.1 201.25,54.1 201.64,54.1 202.03,54.1 202.42,54.09 202.81,54.09 203.19,54.08 203.58,54.08 203.97,54.09 204.36,54.08 204.75,54.08 205.14,54.08 205.52,54.08 205.91,54.09 206.3,54.09 206.69,54.08 207.08,54.08 207.47,54.07 207.85,54.07 208.24,54.07 208.63,54.08 209.02,54.08 209.41,54.07 209.79,54.07 210.18,54.07 210.57,54.08 210.96,54.07 211.35,54.07 211.74,54.06 212.12,54.06 212.51,54.05 212.9,54.05 213.29,54.05 213.68,54.06 214.07,54.06 214.45,54.06 214.84,54.06 215.23,54.06 215.62,54.06 216.01,54.06 216.4,54.06 216.78,54.06 217.17,54.05 217.56,54.04 217.95,54.04 218.34,54.04 218.73,54.04 219.11,54.05 219.5,54.05 219.89,54.06 220.28,54.07 220.67,54.06 221.06,54.06 221.44,54.07 221.83,54.06 222.22,54.06 222.61,54.06 223,54.06 223.38,54.07 223.77,54.07 224.16,54.06 224.55,54.05 224.94,54.05 225.33,54.06 225.71,54.06 226.1,54.05 226.49,54.05 226.88,54.05 227.27,54.06 227.66,54.05 228.04,54.05 228.43,54.05 228.82,54.04 229.21,54.04 229.6,54.04 229.99,54.04 230.37,54.04 230.76,54.04 231.15,54.04 231.54,54.05 231.93,54.06 232.32,54.07 232.7,54.06 233.09,54.06 233.48,54.06 233.87,54.06 234.26,54.05 234.64,54.04 235.03,54.04 235.42,54.04 235.81,54.04 236.2,54.04 236.59,54.04 236.97,54.03 237.36,54.04 237.75,54.05 238.14,54.05 238.53,54.04 238.92,54.04 239.3,54.04 239.69,54.04 240.08,54.04 240.47,54.03 240.86,54.03 241.25,54.03 241.63,54.04 242.02,54.04 242.41,54.04 242.8,54.05 243.19,54.04 243.58,54.04 243.96,54.03 244.35,54.03 244.74,54.03 245.13,54.03 245.52,54.03 245.9,54.02 246.29,54.02 246.68,54.02 247.07,54.02 247.46,54.02 247.85,54.03 248.23,54.03 248.62,54.04 249.01,54.04 249.4,54.04 249.79,54.04 250.18,54.03 250.56,54.03 250.95,54.03 251.34,54.03 251.73,54.03 252.12,54.03 252.51,54.02 252.89,54.02 253.28,54.02 253.67,54.03 254.06,54.04 254.45,54.04 254.84,54.04 255.22,54.04 255.61,54.04 256,54.02 256.39,54.02 256.78,54.02 257.17,54.02 257.55,54.02 257.94,54.01 258.33,54 258.72,53.99 259.11,53.98 259.49,53.97 259.88,53.97" stroke-dasharray="none" stroke="rgb(31,120,180)" stroke-width="0.75" opacity="1" stroke-opacity="1" fill="none"/>
          </g>
          <g id="Fig:densplot_01.xyplot.lines.group.7.panel.1.1.1">
            <polyline id="Fig:densplot_01.xyplot.lines.group.7.panel.1.1.1.1" points="59,53.98 59.4,54 59.79,54.06 60.19,54.2 60.59,54.49 60.98,55.04 61.38,56 61.78,57.51 62.18,59.74 62.57,62.91 62.97,67.23 63.37,72.91 63.76,80.02 64.16,88.34 64.56,97.14 64.95,105.53 65.35,112.64 65.75,117.91 66.14,121.2 66.54,122.69 66.94,122.77 67.33,121.85 67.73,120.27 68.13,118.27 68.53,116.01 68.92,113.63 69.32,111.19 69.72,108.79 70.11,106.47 70.51,104.28 70.91,102.25 71.3,100.37 71.7,98.63 72.1,97.02 72.49,95.5 72.89,94.06 73.29,92.68 73.68,91.35 74.08,90.08 74.48,88.86 74.88,87.71 75.27,86.62 75.67,85.59 76.07,84.63 76.46,83.71 76.86,82.83 77.26,81.99 77.65,81.18 78.05,80.42 78.45,79.7 78.84,79.02 79.24,78.37 79.64,77.73 80.03,77.11 80.43,76.48 80.83,75.87 81.23,75.26 81.62,74.67 82.02,74.1 82.42,73.54 82.81,73 83.21,72.48 83.61,72 84,71.55 84.4,71.16 84.8,70.79 85.19,70.44 85.59,70.1 85.99,69.74 86.38,69.36 86.78,68.96 87.18,68.55 87.58,68.15 87.97,67.77 88.37,67.42 88.77,67.1 89.16,66.81 89.56,66.55 89.96,66.29 90.35,66.04 90.75,65.78 91.15,65.51 91.54,65.25 91.94,64.98 92.34,64.73 92.73,64.49 93.13,64.27 93.53,64.06 93.93,63.84 94.32,63.63 94.72,63.4 95.12,63.16 95.51,62.93 95.91,62.71 96.31,62.5 96.7,62.31 97.1,62.13 97.5,61.97 97.89,61.82 98.29,61.68 98.69,61.55 99.08,61.43 99.48,61.31 99.88,61.2 100.28,61.08 100.67,60.95 101.07,60.82 101.47,60.68 101.86,60.53 102.26,60.37 102.66,60.21 103.05,60.05 103.45,59.9 103.85,59.77 104.24,59.66 104.64,59.57 105.04,59.5 105.43,59.44 105.83,59.37 106.23,59.3 106.63,59.23 107.02,59.14 107.42,59.05 107.82,58.97 108.21,58.89 108.61,58.81 109.01,58.75 109.4,58.68 109.8,58.62 110.2,58.56 110.59,58.49 110.99,58.43 111.39,58.36 111.78,58.28 112.18,58.21 112.58,58.14 112.98,58.07 113.37,58 113.77,57.94 114.17,57.89 114.56,57.83 114.96,57.78 115.36,57.73 115.75,57.66 116.15,57.6 116.55,57.54 116.94,57.48 117.34,57.44 117.74,57.4 118.13,57.37 118.53,57.34 118.93,57.31 119.33,57.26 119.72,57.22 120.12,57.18 120.52,57.14 120.91,57.1 121.31,57.07 121.71,57.03 122.1,56.98 122.5,56.93 122.9,56.88 123.29,56.83 123.69,56.77 124.09,56.72 124.48,56.67 124.88,56.63 125.28,56.6 125.68,56.57 126.07,56.53 126.47,56.5 126.87,56.47 127.26,56.43 127.66,56.4 128.06,56.36 128.45,56.32 128.85,56.29 129.25,56.26 129.64,56.24 130.04,56.22 130.44,56.21 130.83,56.2 131.23,56.18 131.63,56.16 132.03,56.13 132.42,56.1 132.82,56.07 133.22,56.04 133.61,56.02 134.01,55.99 134.41,55.97 134.8,55.95 135.2,55.92 135.6,55.9 135.99,55.89 136.39,55.87 136.79,55.86 137.18,55.84 137.58,55.83 137.98,55.81 138.38,55.79 138.77,55.77 139.17,55.75 139.57,55.74 139.96,55.72 140.36,55.71 140.76,55.7 141.15,55.68 141.55,55.66 141.95,55.63 142.34,55.61 142.74,55.59 143.14,55.58 143.53,55.56 143.93,55.56 144.33,55.55 144.73,55.54 145.12,55.52 145.52,55.5 145.92,55.48 146.31,55.46 146.71,55.44 147.11,55.42 147.5,55.41 147.9,55.4 148.3,55.39 148.69,55.38 149.09,55.37 149.49,55.36 149.88,55.34 150.28,55.33 150.68,55.31 151.08,55.3 151.47,55.28 151.87,55.27 152.27,55.26 152.66,55.25 153.06,55.25 153.46,55.24 153.85,55.24 154.25,55.24 154.65,55.24 155.04,55.24 155.44,55.24 155.84,55.23 156.23,55.22 156.63,55.2 157.03,55.18 157.43,55.16 157.82,55.14 158.22,55.13 158.62,55.11 159.01,55.1 159.41,55.08 159.81,55.07 160.2,55.05 160.6,55.04 161,55.04 161.39,55.03 161.79,55.03 162.19,55.02 162.58,55.02 162.98,55.01 163.38,54.99 163.78,54.98 164.17,54.97 164.57,54.96 164.97,54.95 165.36,54.94 165.76,54.93 166.16,54.93 166.55,54.92 166.95,54.91 167.35,54.91 167.74,54.91 168.14,54.9 168.54,54.9 168.93,54.89 169.33,54.88 169.73,54.86 170.13,54.85 170.52,54.85 170.92,54.85 171.32,54.84 171.71,54.84 172.11,54.83 172.51,54.82 172.9,54.81 173.3,54.8 173.7,54.79 174.09,54.78 174.49,54.78 174.89,54.77 175.28,54.77 175.68,54.77 176.08,54.76 176.48,54.76 176.87,54.75 177.27,54.73 177.67,54.72 178.06,54.71 178.46,54.7 178.86,54.68 179.25,54.67 179.65,54.67 180.05,54.67 180.44,54.67 180.84,54.68 181.24,54.68 181.63,54.68 182.03,54.67 182.43,54.67 182.83,54.66 183.22,54.64 183.62,54.64 184.02,54.63 184.41,54.62 184.81,54.61 185.21,54.61 185.6,54.6 186,54.6 186.4,54.59 186.79,54.58 187.19,54.58 187.59,54.58 187.98,54.57 188.38,54.57 188.78,54.57 189.18,54.56 189.57,54.56 189.97,54.56 190.37,54.55 190.76,54.54 191.16,54.53 191.56,54.53 191.95,54.52 192.35,54.52 192.75,54.51 193.14,54.51 193.54,54.5 193.94,54.49 194.33,54.49 194.73,54.48 195.13,54.48 195.53,54.48 195.92,54.49 196.32,54.49 196.72,54.49 197.11,54.49 197.51,54.49 197.91,54.49 198.3,54.5 198.7,54.51 199.1,54.51 199.49,54.51 199.89,54.51 200.29,54.5 200.68,54.49 201.08,54.48 201.48,54.47 201.88,54.46 202.27,54.45 202.67,54.45 203.07,54.46 203.46,54.46 203.86,54.46 204.26,54.46 204.65,54.46 205.05,54.45 205.45,54.45 205.84,54.45 206.24,54.45 206.64,54.45 207.03,54.44 207.43,54.44 207.83,54.43 208.23,54.43 208.62,54.42 209.02,54.41 209.42,54.41 209.81,54.4 210.21,54.4 210.61,54.39 211,54.39 211.4,54.39 211.8,54.38 212.19,54.38 212.59,54.38 212.99,54.39 213.38,54.39 213.78,54.39 214.18,54.39 214.58,54.39 214.97,54.4 215.37,54.4 215.77,54.4 216.16,54.4 216.56,54.41 216.96,54.41 217.35,54.41 217.75,54.4 218.15,54.4 218.54,54.39 218.94,54.38 219.34,54.37 219.73,54.37 220.13,54.37 220.53,54.37 220.93,54.37 221.32,54.37 221.72,54.37 222.12,54.37 222.51,54.37 222.91,54.37 223.31,54.36 223.7,54.36 224.1,54.35 224.5,54.34 224.89,54.33 225.29,54.33 225.69,54.32 226.08,54.32 226.48,54.33 226.88,54.33 227.28,54.33 227.67,54.33 228.07,54.33 228.47,54.32 228.86,54.31 229.26,54.31 229.66,54.31 230.05,54.3 230.45,54.3 230.85,54.3 231.24,54.29 231.64,54.29 232.04,54.28 232.43,54.28 232.83,54.27 233.23,54.27 233.63,54.27 234.02,54.26 234.42,54.26 234.82,54.26 235.21,54.27 235.61,54.27 236.01,54.27 236.4,54.27 236.8,54.27 237.2,54.27 237.59,54.27 237.99,54.28 238.39,54.28 238.78,54.29 239.18,54.29 239.58,54.29 239.98,54.29 240.37,54.28 240.77,54.27 241.17,54.27 241.56,54.26 241.96,54.26 242.36,54.26 242.75,54.26 243.15,54.26 243.55,54.27 243.94,54.27 244.34,54.26 244.74,54.26 245.13,54.26 245.53,54.25 245.93,54.25 246.33,54.25 246.72,54.25 247.12,54.25 247.52,54.25 247.91,54.24 248.31,54.24 248.71,54.24 249.1,54.23 249.5,54.23 249.9,54.23 250.29,54.23 250.69,54.23 251.09,54.23 251.48,54.22 251.88,54.22 252.28,54.22 252.68,54.22 253.07,54.22 253.47,54.21 253.87,54.21 254.26,54.21 254.66,54.21 255.06,54.21 255.45,54.22 255.85,54.21 256.25,54.21 256.64,54.21 257.04,54.2 257.44,54.18 257.83,54.15 258.23,54.12 258.63,54.09 259.03,54.05 259.42,54.02 259.82,54 260.22,53.98 260.61,53.97 261.01,53.97 261.41,53.97 261.8,53.97" stroke-dasharray="none" stroke="rgb(31,120,180)" stroke-width="0.75" opacity="1" stroke-opacity="1" fill="none"/>
          </g>
          <g id="Fig:densplot_01.xyplot.lines.group.8.panel.1.1.1">
            <polyline id="Fig:densplot_01.xyplot.lines.group.8.panel.1.1.1.1" points="59.77,53.97 60.17,53.98 60.56,54.03 60.96,54.16 61.35,54.52 61.75,55.37 62.14,57.15 62.54,60.42 62.93,65.74 63.33,73.39 63.72,83.14 64.12,94.16 64.51,105.17 64.91,114.85 65.3,122.22 65.7,126.89 66.09,129.03 66.49,129.16 66.88,127.89 67.28,125.8 67.67,123.28 68.07,120.6 68.46,117.88 68.86,115.18 69.25,112.54 69.65,109.97 70.04,107.52 70.44,105.2 70.83,103.04 71.23,101.03 71.62,99.17 72.02,97.43 72.42,95.8 72.81,94.24 73.21,92.77 73.6,91.37 74,90.06 74.39,88.82 74.79,87.65 75.18,86.56 75.58,85.53 75.97,84.56 76.37,83.63 76.76,82.72 77.16,81.83 77.55,80.96 77.95,80.13 78.34,79.34 78.74,78.59 79.13,77.89 79.53,77.21 79.92,76.54 80.32,75.89 80.71,75.24 81.11,74.61 81.5,73.98 81.9,73.36 82.29,72.75 82.69,72.18 83.08,71.63 83.48,71.13 83.87,70.66 84.27,70.21 84.66,69.78 85.06,69.37 85.45,68.97 85.85,68.58 86.24,68.21 86.64,67.86 87.03,67.53 87.43,67.22 87.82,66.91 88.22,66.61 88.61,66.3 89.01,65.99 89.4,65.69 89.8,65.4 90.19,65.13 90.59,64.87 90.98,64.63 91.38,64.4 91.77,64.17 92.17,63.93 92.56,63.69 92.96,63.45 93.35,63.2 93.75,62.96 94.14,62.74 94.54,62.53 94.93,62.33 95.33,62.15 95.72,61.99 96.12,61.84 96.51,61.7 96.91,61.59 97.3,61.48 97.7,61.38 98.09,61.27 98.49,61.15 98.88,61.01 99.28,60.86 99.68,60.7 100.07,60.54 100.47,60.37 100.86,60.22 101.26,60.07 101.65,59.94 102.05,59.82 102.44,59.73 102.84,59.65 103.23,59.58 103.63,59.51 104.02,59.44 104.42,59.37 104.81,59.28 105.21,59.18 105.6,59.08 106,58.98 106.39,58.89 106.79,58.8 107.18,58.73 107.58,58.65 107.97,58.59 108.37,58.52 108.76,58.46 109.16,58.41 109.55,58.37 109.95,58.32 110.34,58.27 110.74,58.21 111.13,58.15 111.53,58.1 111.92,58.04 112.32,57.99 112.71,57.93 113.11,57.87 113.5,57.8 113.9,57.72 114.29,57.65 114.69,57.58 115.08,57.53 115.48,57.48 115.87,57.45 116.27,57.41 116.66,57.37 117.06,57.32 117.45,57.27 117.85,57.21 118.24,57.16 118.64,57.11 119.03,57.06 119.43,57.01 119.82,56.96 120.22,56.92 120.61,56.88 121.01,56.85 121.4,56.82 121.8,56.8 122.19,56.77 122.59,56.75 122.98,56.73 123.38,56.7 123.77,56.68 124.17,56.64 124.56,56.6 124.96,56.55 125.35,56.51 125.75,56.47 126.14,56.43 126.54,56.4 126.94,56.37 127.33,56.34 127.73,56.3 128.12,56.27 128.52,56.24 128.91,56.22 129.31,56.2 129.7,56.19 130.1,56.18 130.49,56.17 130.89,56.15 131.28,56.13 131.68,56.1 132.07,56.08 132.47,56.05 132.86,56.02 133.26,55.99 133.65,55.96 134.05,55.94 134.44,55.93 134.84,55.92 135.23,55.92 135.63,55.92 136.02,55.91 136.42,55.89 136.81,55.86 137.21,55.83 137.6,55.79 138,55.75 138.39,55.72 138.79,55.69 139.18,55.66 139.58,55.64 139.97,55.63 140.37,55.62 140.76,55.61 141.16,55.6 141.55,55.6 141.95,55.59 142.34,55.58 142.74,55.57 143.13,55.56 143.53,55.55 143.92,55.54 144.32,55.52 144.71,55.5 145.11,55.49 145.5,55.47 145.9,55.46 146.29,55.44 146.69,55.43 147.08,55.42 147.48,55.42 147.87,55.41 148.27,55.4 148.66,55.38 149.06,55.36 149.45,55.33 149.85,55.31 150.24,55.29 150.64,55.28 151.03,55.27 151.43,55.27 151.82,55.26 152.22,55.25 152.61,55.23 153.01,55.2 153.4,55.17 153.8,55.15 154.2,55.14 154.59,55.13 154.99,55.12 155.38,55.12 155.78,55.11 156.17,55.11 156.57,55.1 156.96,55.1 157.36,55.09 157.75,55.09 158.15,55.09 158.54,55.09 158.94,55.09 159.33,55.08 159.73,55.07 160.12,55.05 160.52,55.03 160.91,55.02 161.31,55.01 161.7,55 162.1,55 162.49,54.99 162.89,54.98 163.28,54.96 163.68,54.95 164.07,54.94 164.47,54.94 164.86,54.93 165.26,54.93 165.65,54.93 166.05,54.92 166.44,54.92 166.84,54.92 167.23,54.92 167.63,54.91 168.02,54.89 168.42,54.88 168.81,54.87 169.21,54.86 169.6,54.85 170,54.85 170.39,54.84 170.79,54.84 171.18,54.83 171.58,54.82 171.97,54.82 172.37,54.81 172.76,54.8 173.16,54.8 173.55,54.79 173.95,54.79 174.34,54.78 174.74,54.78 175.13,54.78 175.53,54.77 175.92,54.76 176.32,54.75 176.71,54.74 177.11,54.72 177.5,54.71 177.9,54.7 178.29,54.7 178.69,54.69 179.08,54.69 179.48,54.68 179.87,54.68 180.27,54.67 180.67,54.66 181.06,54.65 181.46,54.65 181.85,54.65 182.25,54.64 182.64,54.64 183.04,54.63 183.43,54.63 183.83,54.62 184.22,54.61 184.62,54.6 185.01,54.6 185.41,54.6 185.8,54.6 186.2,54.6 186.59,54.6 186.99,54.6 187.38,54.6 187.78,54.59 188.17,54.59 188.57,54.58 188.96,54.58 189.36,54.57 189.75,54.57 190.15,54.57 190.54,54.57 190.94,54.58 191.33,54.58 191.73,54.58 192.12,54.58 192.52,54.57 192.91,54.56 193.31,54.55 193.7,54.54 194.1,54.53 194.49,54.52 194.89,54.52 195.28,54.52 195.68,54.52 196.07,54.52 196.47,54.52 196.86,54.51 197.26,54.51 197.65,54.5 198.05,54.49 198.44,54.48 198.84,54.48 199.23,54.47 199.63,54.47 200.02,54.47 200.42,54.47 200.81,54.47 201.21,54.47 201.6,54.47 202,54.48 202.39,54.48 202.79,54.48 203.18,54.47 203.58,54.47 203.97,54.46 204.37,54.45 204.76,54.44 205.16,54.43 205.55,54.42 205.95,54.42 206.34,54.42 206.74,54.42 207.13,54.43 207.53,54.43 207.93,54.44 208.32,54.44 208.72,54.44 209.11,54.43 209.51,54.43 209.9,54.43 210.3,54.43 210.69,54.43 211.09,54.42 211.48,54.41 211.88,54.39 212.27,54.38 212.67,54.37 213.06,54.37 213.46,54.37 213.85,54.37 214.25,54.38 214.64,54.38 215.04,54.37 215.43,54.37 215.83,54.37 216.22,54.36 216.62,54.36 217.01,54.36 217.41,54.36 217.8,54.37 218.2,54.37 218.59,54.37 218.99,54.37 219.38,54.37 219.78,54.36 220.17,54.36 220.57,54.35 220.96,54.35 221.36,54.35 221.75,54.34 222.15,54.34 222.54,54.33 222.94,54.32 223.33,54.31 223.73,54.31 224.12,54.31 224.52,54.31 224.91,54.31 225.31,54.31 225.7,54.31 226.1,54.31 226.49,54.31 226.89,54.31 227.28,54.3 227.68,54.3 228.07,54.3 228.47,54.3 228.86,54.3 229.26,54.3 229.65,54.3 230.05,54.3 230.44,54.31 230.84,54.31 231.23,54.31 231.63,54.31 232.02,54.31 232.42,54.31 232.81,54.31 233.21,54.31 233.6,54.31 234,54.31 234.39,54.3 234.79,54.3 235.19,54.3 235.58,54.3 235.98,54.31 236.37,54.31 236.77,54.31 237.16,54.31 237.56,54.3 237.95,54.3 238.35,54.29 238.74,54.29 239.14,54.29 239.53,54.28 239.93,54.27 240.32,54.27 240.72,54.26 241.11,54.25 241.51,54.25 241.9,54.25 242.3,54.25 242.69,54.26 243.09,54.26 243.48,54.26 243.88,54.27 244.27,54.26 244.67,54.26 245.06,54.26 245.46,54.26 245.85,54.26 246.25,54.25 246.64,54.25 247.04,54.26 247.43,54.26 247.83,54.26 248.22,54.25 248.62,54.25 249.01,54.25 249.41,54.25 249.8,54.24 250.2,54.24 250.59,54.24 250.99,54.24 251.38,54.24 251.78,54.24 252.17,54.24 252.57,54.24 252.96,54.24 253.36,54.23 253.75,54.23 254.15,54.23 254.54,54.23 254.94,54.23 255.33,54.23 255.73,54.23 256.12,54.23 256.52,54.22 256.91,54.21 257.31,54.2 257.7,54.17 258.1,54.14 258.49,54.1 258.89,54.07 259.28,54.03 259.68,54 260.07,53.99 260.47,53.98 260.86,53.97 261.26,53.97 261.65,53.97" stroke-dasharray="none" stroke="rgb(31,120,180)" stroke-width="0.75" opacity="1" stroke-opacity="1" fill="none"/>
          </g>
        </g>
        <g id="Fig:densplot_01.panel.1.1.off.vp.2">
          <g id="Fig:densplot_01.border.panel.1.1.1">
            <rect id="Fig:densplot_01.border.panel.1.1.1.1" x="44.8" y="42.19" width="231.2" height="191.81" transform="" stroke="rgb(0,0,0)" stroke-dasharray="none" stroke-width="0.75" opacity="1" fill="none" stroke-opacity="1" fill-opacity="0"/>
          </g>
        </g>
        <g id="Fig:densplot_01..1"/>
      </g>
    </g>
  </g>
</svg>